<?xml version="1.0" encoding="utf-8"?>
<svg xmlns="http://www.w3.org/2000/svg"
     xmlns:xlink="http://www.w3.org/1999/xlink"
     x="0" y="0" width="18" height="18" viewBox="0 0 18 18">
  <style>
    g {
      fill: none;
      stroke: #000;
      stroke-width: 1.0325;
    }
    #brighttext:target + g {
      stroke: #fff;
      stroke-width: 1;
    }
  </style>
  <g id="brighttext"/>
	<g>
	  <rect x="2.5" y="2.5" width="13" height="13" rx="3.6" ry="3.6"/>
	  <path d="M 5.25,8.5   a 1,1 0 0,1 1,-1   h .75   a 1.5,1.5 0 0,1 1.5,1.5   v 1
             a 2.25,1.5 0 0,1 -2.25,1.5   h 0   a 1.25,1 0 0,1 -1.25,-1   a 2,1.25 0 0,1 2,-1.25   h 5.75
             a 2,2 0 0,0 -2,-2   h -.5   a 2,2 0 0,0 -2,2   v .25   a 2,2 0 0,0 2,2   h .5   a 3,2 0 0,0 2,-1"/>
	</g>
</svg>