<?xml version="1.0" encoding="utf-8"?>
<svg xmlns="http://www.w3.org/2000/svg"
     xmlns:xlink="http://www.w3.org/1999/xlink"
     x="0" y="0" width="18" height="18" viewBox="0 0 18 18">
  <style>
    g {
      fill: none;
      stroke: #000;
      stroke-width: 1.0325;
    }
    #brighttext:target + g {
      stroke: #fff;
      stroke-width: 1;
    }
  </style>
  <g id="brighttext"/>
	<g>
    <path d="M 6,2   l -2.5,2.5   l 2.5,2.5"/>
    <path d="M 3.5,4.5   h 6.5   a 5.5,5.5 0 0,1 0,11   c -2.5,0 -3.5,-1 -4.5,-2"/>
    <path d="M 8.5,6   l 1.25,4.5   l 2.5,1"/>
  </g>
  <!-- g>
    <path d="M 6,2   l -2.5,2.5   l 2.5,2.5"/>
    <path d="M 3.5,4.5   h 6.5   a 5.5,5.5 0 0,1 0,11   c -2.5,0 -3.5,-1 -4.5,-2"/>
    <path d="M 8,6.536   a 4,4 0 1,0 1,-.409   l 1.2,3.7   l 2.3,1   l -.6,1   l -2.9,-1.2   Z" stroke-width="0" fill="#000"/>
	</g -->
</svg>