<?xml version="1.0" encoding="utf-8"?>
<svg xmlns="http://www.w3.org/2000/svg"
     xmlns:xlink="http://www.w3.org/1999/xlink"
     x="0" y="0" width="18" height="18" viewBox="0 0 18 18">
  <style>
    g {
      fill: none;
      stroke: #000;
      stroke-width: 1.0325;
    }
    g > path:last-child {
      stroke-width: 1;
      fill: #000;
    }
    #brighttext:target + g {
      stroke: #fff;
      stroke-width: 1;
    }
    #brighttext:target + g > path:last-child {
      fill: #fff;
    }
  </style>
  <g id="brighttext"/>
	<g>
    <path d="M 2.5,5.9   a 1.4,1.4 0 0,1 1.4,-1.4   h 2.1   l 3,-3   l 3,3   h 2.1   a 1.4,1.4 0 0,1 1.4,1.4
                     v 8.2   a 1.4,1.4 0 0,1 -1.4,1.4   h -10.2   a 1.4,1.4 0 0,1 -1.4,-1.4   v -8.2   z"/>
    <path d = "M 12.25,8.25   a 2.12,2.12 0 1,1 -1.5,-1.5   l -1,1   v 1.5   h 1.5   l 1,-1   z
               M 10.25,9.75   l -3.5,3.5   a .707,.707 0 0,1 -1,-1   l 3.5,-3.5   z"/>
  </g>
</svg>