<?xml version="1.0" encoding="utf-8"?>
<svg xmlns="http://www.w3.org/2000/svg"
     xmlns:xlink="http://www.w3.org/1999/xlink"
     x="0" y="0" width="18" height="18" viewBox="0 0 18 18">
  <style>
    g {
      fill: none;
      stroke: #000;
      stroke-width: 1.0325;
    }
    #brighttext:target + g {
      stroke: #fff;
      stroke-width: 1;
    }
  </style>
  <g id="brighttext"/>
	<g>
    <ellipse  cx="8.5"  cy="7"  rx="1.25"  ry="1.75"/>
    <path  d="M 2.5,14.5   v-4   c .5,-1  2,-2 3,-2.5   c 0,-2.5 1,-5.5 3,-5.5   c 2,0 3,3 3,5.5   c 1,.5 2.5,1.5 3,2.5   v 4
              c -2,-2 -3,-2 -4,-2   c -1,0 -1,.5 -2,.5   c -1,0 -1,-.5 -2,-.5   c -1,0 -2,0 -4,2   Z"/>
    <path  d="M 7.5,13   c -1,2 1.25,2 1,3.5   c -.25,-1.5 2,-1.5 1,-3.5   a 1.2,1.2 0 0,1 -2,0   Z"/>
  </g>
</svg>