<?xml version="1.0" encoding="utf-8"?>
<svg xmlns="http://www.w3.org/2000/svg"
     xmlns:xlink="http://www.w3.org/1999/xlink"
     x="0" y="0" width="18" height="18" viewBox="0 0 18 18">
  <style>
    g {
      fill: none;
      stroke: #000;
      stroke-width: 1.0325;
    }
    #brighttext:target + g {
      stroke: #fff;
      stroke-width: 1;
    }
  </style>
  <g id="brighttext"/>
  <g>
    <path d="M 5.215,14.285   a 6.5,6.5 0 1,1 8.741,-9.491"/>
    <path d="M 15.451,9.799   a 6.5,6.5 0 0,1 -5.651,5.651"/>
    <path d="M 3.715,12.785   a 11.5,11.5 0 0,1 9.069,-9.069"/>
    <path d="M 3.931,4.931   a 11.5,11.5 0 0,0 3.818,5.818"/>
    <path d="M 4.931,3.931   a 11.5,11.5 0 0,1 5.818,3.818"/>
    <path d="M 13.069, 14.069   a 11.5,11.5 0 0,1 -1.4,-.5"/>
    <path d="M 14.069, 13.069   a 11.5,11.5 0 0,0 -.5,-1.4"/>
    <path d="M 6.5,13.5   l 8,-8   l 2,2   l -8,8   l -3,1   l 1,-3   Z"/>
	</g>
</svg>