<!-- This Source Code Form is subject to the terms of the Mozilla Public
   - License, v. 2.0. If a copy of the MPL was not distributed with this
   - file, You can obtain one at http://mozilla.org/MPL/2.0/. -->
<svg xmlns="http://www.w3.org/2000/svg" width="16" height="16" viewBox="0 0 16 16">
  <path d="M14.8,12.5L9.3,1.9C9,1.3,8.5,1,8,1C7.5,1,7,1.3,6.7,1.9L1.2,12.5c-0.3,0.6-0.3,1.2,0,1.7C1.5,14.7,2,15,2.6,15h10.8 
                      c0.6,0,1.1-0.3,1.4-0.8C15.1,13.7,15.1,13.1,14.8,12.5z
    M8,11  c0.8,0,1.5,0.7,1.5,1.5  C9.5,13.3,8.8,14,8,14  c-0.8,0-1.5-0.7-1.5-1.5  C6.5,11.7,7.2,11,8,11z 
    M8,10  L8,10  c-0.6,0-1-0.4-1-1  l-0.2-4.2  c0-0.7,0.5-1.2,1.2-1.2  c0.7,0,1.2,.5,1.2,1.2  L9,9  c0,0.6,-0.4,1-1,1z"/>
</svg>
