<?xml version="1.0" encoding="utf-8"?>
<svg xmlns="http://www.w3.org/2000/svg"
     xmlns:xlink="http://www.w3.org/1999/xlink"
     x="0" y="0" width="32" height="32" viewBox="0 0 32 32">
  <style>
    g {
      fill: none;
      stroke: #000;
      stroke-width: 1.0325;
    }
  </style>
	<g>
    <circle cx="16" cy="16" r="14"/>
	  <path d="M 8.5,18.5   v 2.5   a 2.5,2.5 0 0,0 2.5,2.5   h 3   v -.01   a 2,2 0 1,1 3,0   v .01   h 2   a 2.5,2.5 0 0,0 2.5,-2.5   v -3   h .01   a 2.5,2.5 0 1,0 0,-4   h-.01
               v -1   a 2.5,2.5 0 0,0 -2.5,-2.5   h -1   v -.01   a 2.5,2.5 0 1,0 -4,0   v .01   h -3   a 2.5,2.5 0 0,0 -2.5,2.5   v 2   h .01   a 2,2 0 1,1 0,3   h-.01   Z"/>
	</g>
</svg>