<?xml version="1.0" encoding="utf-8"?>
<svg xmlns="http://www.w3.org/2000/svg"
     xmlns:xlink="http://www.w3.org/1999/xlink"
     x="0" y="0" width="32" height="32" viewBox="0 0 32 32">
  <style>
    g {
      fill: none;
      stroke: #000;
      stroke-width: 1.0325;
    }
    #highlight:target + g {
      stroke: #fff;
    }
  </style>
  <g id="highlight"/>
	<g>
	  <rect x="2.5" y="2.5" width="27" height="27" rx="7.5" ry="7.5"/>
	  <path d="M 8.5,13   a 2,1.5 0 0,1 2,-1.5   h 2   a 3,3 0 0,1 3,3   v 2.5
	           a 4.5,3.5 0 0,1 -4.5,3.5   h -.5   a 2.5,2.5 0 0,1 -2.5,-2.5   a 4,2.5 0 0,1 4,-2.5   h 11.5
			   a 4,4 0 0,0 -4,-4   h -.5   a 4,4 0 0,0 -4,4   v 1   a 4,4 0 0,0 4,4   h .5   a 4,2 0 0,0 3.5,-2"/>
	</g>
</svg>