<?xml version="1.0" encoding="utf-8"?>
<svg xmlns="http://www.w3.org/2000/svg"
     xmlns:xlink="http://www.w3.org/1999/xlink"
     x="0" y="0" width="32" height="32" viewBox="0 0 32 32">
  <style>
    g {
      fill: none;
      stroke: #000;
      stroke-width: 1.0325;
    }
  </style>
	<g>
	  <path  d="M 0.5,9.5   c 8,0.5 12,-3.5 15,0   t 1,0   c 3,-3.5 7,0.5 15,0
	            c 0,19 -12,17 -14,15   c -1,-.5 -2,-.5 -3,0   c -2,2 -14,4 -14,-15   Z"/>
	  <path  d="M 14,19.5   c -4,0 -6,2 -8.5,-5   c 3,1 8,-3 8.5,5   Z"/>
	  <path  d="M 18,19.5   c 4,0 6,2 8.5,-5   c -3,1 -8,-3 -8.5,5   Z"/>
	</g>
</svg>