<?xml version="1.0" encoding="utf-8"?>
<svg xmlns="http://www.w3.org/2000/svg"
     xmlns:xlink="http://www.w3.org/1999/xlink"
     x="0" y="0" width="32" height="32" viewBox="0 0 32 32">
  <style>
    g {
      fill: none;
      stroke: #000;
      stroke-width: 1.0325;
    }
  </style>
	<g>
	  <ellipse  cx="16"  cy="11.5"  rx="2.5"  ry="4"/>
	  <path  d="M 5.5,28.5   v -10   c 2,-2.5 3,-3.5 5,-5   a 4,9 0 0,1 11,0   c 2,1.5 3,2.5 5,5   v 10  
	            c -5,-5.5 -5.5,-5.5 -6.5,-5.5   c -3,2 -4,2 -8,0   c -1,0 -1.5,0 -6.5,5.5   v -3"/>
	  <path  d="M 13.5,23.5   c 0,6 2.5,6 2.5,9   c 0,-5 2.5,-3 2.5,-9"/>
	</g>
</svg>