<?xml version="1.0" encoding="utf-8"?>
<svg xmlns="http://www.w3.org/2000/svg"
     xmlns:xlink="http://www.w3.org/1999/xlink"
     x="0" y="0" width="32" height="32" viewBox="0 0 32 32">
  <style>
    g {
      fill: none;
      stroke: #000;
      stroke-width: 1.0325;
    }
  </style>
	<g>
    <path d="M 15,15   m 13.416,1.5   a 13.5,13.5 0 0,1 -11.916,11.916"/>
    <path d="M 15,15   m 9.5,-9.592   a 13.5,13.5 0 1,0 -17.985,20.092"/>
    <path d="M 15,15   m 7.826,-11.0   a 30,30 0 0,0 -17.888,20"/>
    <path d="M 15,15   m -8.485,-10.5   a 30,30 0 0,1 12.163,6.5"/>
    <path d="M 15,15   m 10.098, 4   a 30,30 0 0,1 1.445, 3"/>
    <path d="M 15,15   m -11.225,-7.5   a 30,30 0 0,0 8.684, 10"/>
    <path d="M 15,15   m 7,7.17   a 30,30 0 0,0 3.874, 0.83"/>
    <path d="M 25.5,7.5   l 4.75,4.75   l -16.25,16.25   l -6.0,1.25   l 1.25,-6.0   l 16.25,-16.25   Z"/>
	</g>
</svg>